<?xml version="1.0" standalone="no"?>
<!DOCTYPE svg PUBLIC "-//W3C//DTD SVG 20010904//EN"
 "http://www.w3.org/TR/2001/REC-SVG-20010904/DTD/svg10.dtd">
<svg version="1.0" xmlns="http://www.w3.org/2000/svg"
 width="500.000000pt" height="500.000000pt" viewBox="0 0 500.000000 500.000000"
 preserveAspectRatio="xMidYMid meet">
<metadata>
Created by potrace 1.11, written by Peter Selinger 2001-2013
</metadata>
<g transform="translate(0.000000,500.000000) scale(0.100000,-0.100000)"
fill="#000000" stroke="none">
<path d="M0 2500 l0 -2500 2500 0 2500 0 0 2500 0 2500 -2500 0 -2500 0 0
-2500z m2567 2199 c91 -44 178 -187 235 -389 18 -63 33 -116 34 -118 1 -2 58
10 126 27 153 37 243 46 333 31 138 -22 204 -93 191 -204 -12 -102 -112 -260
-250 -396 l-56 -54 56 -57 c53 -54 58 -56 97 -52 36 4 46 1 70 -22 29 -29 35
-71 17 -106 -9 -15 -4 -34 25 -93 46 -93 56 -174 27 -226 -61 -111 -260 -135
-530 -64 -52 13 -97 24 -102 24 -4 0 -11 -17 -15 -37 -25 -133 -109 -328 -175
-405 -45 -52 -110 -88 -159 -88 -81 0 -170 84 -237 225 -41 87 -94 249 -94
288 0 15 -5 18 -22 13 -13 -3 -55 -13 -95 -22 -60 -15 -73 -21 -78 -41 -16
-66 -103 -87 -147 -35 -20 24 -35 30 -107 40 -110 16 -165 47 -193 110 -26 58
-20 122 21 206 38 80 81 138 184 251 l86 92 -60 59 c-83 81 -176 206 -212 283
-120 265 92 384 498 279 124 -32 113 -37 145 77 28 98 28 99 9 123 -23 30 -24
53 -4 91 15 31 33 41 70 41 17 0 33 13 54 43 80 116 165 151 258 106z m400
-2869 c64 -28 78 -62 78 -195 0 -120 -10 -153 -56 -187 -39 -29 -91 -37 -236
-38 l-133 0 0 -160 c0 -136 -2 -160 -15 -160 -13 0 -15 46 -13 378 l3 377 95
6 c129 8 227 1 277 -21z m673 2 c23 -11 43 -32 58 -62 21 -40 23 -56 20 -142
-4 -114 -18 -140 -89 -175 -34 -17 -40 -23 -27 -28 28 -11 54 -62 102 -202 33
-98 41 -133 31 -133 -8 0 -29 46 -55 125 -44 133 -71 182 -110 202 -16 8 -71
13 -152 13 l-128 0 0 -170 c0 -145 -2 -170 -15 -170 -13 0 -15 46 -13 378 l3
377 95 6 c130 8 238 0 280 -19z m-1940 8 c0 -6 -61 -10 -164 -10 -91 0 -176
-4 -191 -10 -43 -16 -56 -65 -53 -193 l3 -112 178 -3 c107 -1 177 -6 177 -12
0 -6 -70 -10 -181 -10 l-180 0 3 -161 3 -161 28 -24 c27 -23 33 -24 203 -24
109 0 174 -4 174 -10 0 -14 -345 -13 -373 1 -57 29 -57 28 -57 363 l0 308 34
34 34 34 181 0 c114 0 181 -4 181 -10z m296 -165 c87 -141 113 -175 129 -173
13 2 53 57 125 173 65 104 113 171 124 173 13 3 16 0 10 -10 -4 -7 -52 -84
-107 -172 -54 -87 -101 -164 -103 -171 -3 -7 47 -97 110 -201 67 -110 111
-191 104 -193 -15 -5 -19 2 -145 207 -74 120 -111 172 -122 170 -9 -2 -67 -87
-131 -191 -63 -103 -121 -187 -129 -187 -19 0 -16 4 104 200 60 96 108 180
108 186 0 6 -48 88 -106 182 -59 95 -107 174 -107 177 0 3 6 5 13 5 8 0 63
-79 123 -175z"/>
<path d="M2495 4685 c-5 -2 -22 -6 -37 -9 -34 -8 -90 -56 -119 -102 -17 -29
-19 -40 -11 -57 12 -23 15 -41 13 -70 -1 -25 -49 -67 -76 -67 -19 0 -25 -11
-43 -72 -42 -142 -46 -130 50 -166 45 -17 115 -45 154 -62 l71 -32 89 39 c49
22 117 51 151 63 71 26 69 9 27 160 -31 108 -113 275 -156 317 -33 32 -94 63
-113 58z"/>
<path d="M1640 4200 c-75 -25 -100 -58 -100 -131 0 -44 7 -71 35 -125 39 -78
137 -205 214 -277 l51 -48 58 46 c31 25 89 69 129 98 72 52 72 52 78 107 3 30
13 99 20 153 8 54 15 104 15 112 0 17 -101 50 -218 70 -115 20 -215 19 -282
-5z"/>
<path d="M3025 4200 c-49 -11 -111 -27 -137 -36 -41 -13 -47 -19 -43 -37 13
-61 24 -142 31 -219 l7 -86 46 -33 c25 -18 86 -64 134 -102 l88 -70 51 49 c80
78 176 203 213 278 59 116 45 205 -38 248 -60 32 -227 35 -352 8z"/>
<path d="M2171 4087 c-16 -78 -34 -228 -28 -233 2 -3 49 22 103 54 55 33 123
73 153 90 l55 30 -40 17 c-21 9 -83 34 -136 55 l-97 38 -10 -51z"/>
<path d="M2685 4092 c-49 -21 -103 -45 -120 -54 l-29 -16 61 -31 c34 -17 102
-55 152 -86 l91 -55 0 33 c0 17 -7 77 -15 132 -8 55 -15 103 -15 108 0 15 -37
6 -125 -31z"/>
<path d="M2323 3914 c-83 -47 -161 -95 -172 -105 -20 -18 -21 -31 -21 -178 0
-87 3 -178 6 -203 l6 -45 137 -80 c75 -45 154 -90 177 -101 l40 -21 120 66
c65 36 144 81 174 102 l55 36 7 80 c3 44 4 138 1 209 l-6 128 -66 43 c-97 63
-269 155 -289 155 -9 0 -85 -39 -169 -86z"/>
<path d="M1994 3697 c-138 -104 -134 -97 -77 -144 88 -72 174 -135 179 -130 2
2 3 82 2 177 l-3 173 -101 -76z"/>
<path d="M2890 3595 l0 -177 28 17 c40 27 190 144 197 155 5 9 -129 121 -195
163 l-30 19 0 -177z"/>
<path d="M1761 3495 c-284 -299 -297 -506 -33 -523 51 -3 72 -1 72 7 0 7 11
23 25 36 32 32 75 32 113 0 29 -24 30 -24 88 -10 33 9 73 20 90 25 l30 10 -12
73 c-7 39 -16 111 -20 159 -4 47 -9 90 -13 95 -3 5 -31 26 -61 48 -30 21 -88
65 -127 97 -40 32 -75 58 -77 58 -2 0 -36 -34 -75 -75z"/>
<path d="M3129 3554 c-7 -8 -58 -49 -113 -91 -56 -41 -108 -80 -117 -87 -12
-10 -18 -39 -23 -102 -4 -49 -13 -120 -21 -159 -7 -38 -10 -73 -7 -76 4 -4 43
-16 87 -27 251 -65 443 -53 498 32 29 44 22 119 -18 202 -34 71 -37 74 -71 74
-24 0 -43 8 -61 26 -22 22 -25 32 -21 69 5 42 3 45 -51 99 -31 31 -59 56 -63
56 -3 0 -11 -7 -19 -16z"/>
<path d="M2140 3336 c0 -15 32 -244 36 -263 l6 -22 76 28 c43 16 104 41 137
56 l59 27 -54 30 c-30 17 -98 56 -150 87 -107 63 -110 65 -110 57z"/>
<path d="M2804 3316 c-17 -11 -83 -50 -147 -86 -64 -36 -113 -68 -109 -72 10
-10 253 -110 257 -106 8 7 36 229 33 256 l-3 30 -31 -22z"/>
<path d="M2400 3099 c-47 -21 -113 -49 -147 -61 -35 -13 -63 -28 -63 -35 0 -6
16 -65 36 -130 44 -144 100 -255 158 -312 38 -37 52 -45 95 -49 39 -3 57 0 85
17 71 44 152 188 199 352 42 146 42 136 -1 150 -20 6 -88 34 -151 60 -62 27
-116 49 -120 48 -3 -1 -44 -18 -91 -40z"/>
<path d="M2620 1629 l0 -201 148 4 c223 6 255 31 255 198 0 172 -35 199 -260
200 l-143 0 0 -201z"/>
<path d="M3290 1640 l0 -192 148 4 c171 4 209 17 238 76 26 53 24 188 -3 234
-32 54 -60 63 -230 66 l-153 3 0 -191z"/>
</g>
</svg>
