<?xml version="1.0" standalone="no"?>
<!DOCTYPE svg PUBLIC "-//W3C//DTD SVG 20010904//EN"
 "http://www.w3.org/TR/2001/REC-SVG-20010904/DTD/svg10.dtd">
<svg version="1.0" xmlns="http://www.w3.org/2000/svg"
 width="500.000000pt" height="500.000000pt" viewBox="0 0 500.000000 500.000000"
 preserveAspectRatio="xMidYMid meet">
<metadata>
Created by potrace 1.11, written by Peter Selinger 2001-2013
</metadata>
<g transform="translate(0.000000,500.000000) scale(0.100000,-0.100000)"
fill="#000000" stroke="none">
<path d="M0 2500 l0 -2500 2500 0 2500 0 0 2500 0 2500 -2500 0 -2500 0 0
-2500z m2567 2199 c91 -44 178 -187 235 -389 18 -63 33 -116 34 -118 1 -2 58
10 126 27 153 37 243 46 333 31 138 -22 204 -93 191 -204 -12 -102 -112 -260
-250 -396 l-56 -54 56 -57 c53 -54 58 -56 97 -52 36 4 46 1 70 -22 29 -29 35
-71 17 -106 -9 -15 -4 -34 25 -93 46 -93 56 -174 27 -226 -61 -111 -260 -135
-530 -64 -52 13 -97 24 -102 24 -4 0 -11 -17 -15 -37 -25 -133 -109 -328 -175
-405 -45 -52 -110 -88 -159 -88 -81 0 -170 84 -237 225 -41 87 -94 249 -94
288 0 15 -5 18 -22 13 -13 -3 -55 -14 -94 -22 -66 -15 -72 -19 -83 -51 -23
-63 -100 -76 -144 -24 -19 23 -35 29 -106 39 -110 16 -165 47 -193 110 -26 58
-20 122 21 206 38 80 81 138 184 251 l86 92 -60 59 c-81 79 -176 205 -211 281
-125 264 91 386 497 281 124 -32 113 -37 145 77 28 98 28 99 9 123 -23 30 -24
53 -4 91 15 31 33 41 70 41 17 0 33 13 54 43 80 116 165 151 258 106z m419
-2868 c56 -25 76 -65 82 -161 7 -127 -25 -199 -98 -221 l-39 -12 25 -19 c32
-26 46 -54 99 -204 36 -100 41 -125 28 -122 -10 2 -30 45 -59 131 -70 204 -74
207 -259 207 l-125 0 0 -170 c0 -144 -2 -170 -15 -170 -13 0 -15 49 -15 380
l0 379 83 4 c137 7 246 -2 293 -22z m-1266 10 c0 -6 -77 -11 -181 -13 l-181
-3 -24 -28 c-23 -27 -24 -35 -24 -158 l0 -129 180 0 c113 0 180 -4 180 -10 0
-6 -67 -10 -180 -10 l-180 0 0 -156 0 -156 29 -29 29 -29 176 0 c117 0 176 -4
176 -11 0 -7 -61 -9 -189 -7 -212 3 -221 6 -241 77 -13 48 -13 545 1 594 19
69 46 77 252 77 103 0 177 -4 177 -9z m294 -166 c76 -124 113 -175 126 -175
13 0 50 51 127 175 73 119 114 175 126 175 18 0 19 2 -145 -258 -32 -51 -58
-98 -58 -104 0 -6 48 -90 108 -186 59 -97 111 -182 115 -189 5 -9 2 -13 -10
-13 -12 1 -53 59 -133 190 -63 105 -120 190 -127 190 -17 0 -36 -27 -148 -214
-67 -111 -106 -165 -117 -166 -17 0 46 110 195 346 22 36 24 44 13 60 -8 11
-59 92 -114 182 -75 120 -97 162 -84 162 11 0 54 -60 126 -175z m1716 165 c0
-6 -64 -10 -171 -10 l-171 0 -29 -29 -29 -29 0 -131 0 -131 180 0 c113 0 180
-4 180 -10 0 -6 -67 -10 -180 -10 l-180 0 0 -157 c1 -109 4 -163 13 -174 26
-34 55 -39 221 -39 104 0 166 -4 166 -10 0 -6 -66 -10 -178 -10 -265 0 -252
-19 -252 375 0 391 -12 374 258 375 108 0 172 -4 172 -10z m-2640 -1250 c0 -5
-18 -10 -39 -10 -61 0 -71 -7 -71 -51 l0 -39 50 0 c28 0 50 -4 50 -10 0 -5
-23 -10 -51 -10 l-50 0 3 -42 3 -43 53 -3 c72 -4 66 -22 -8 -22 -74 0 -80 9
-80 120 0 111 6 120 80 120 33 0 60 -4 60 -10z m124 -47 l28 -58 29 58 c16 31
36 57 44 57 12 0 8 -14 -15 -60 l-30 -60 27 -53 c15 -28 29 -55 31 -59 2 -5
-3 -8 -11 -8 -8 0 -27 25 -43 55 -16 30 -31 55 -34 55 -3 0 -18 -25 -33 -55
-15 -31 -33 -55 -42 -55 -12 0 -9 13 16 62 l31 62 -26 53 c-30 62 -30 63 -13
63 7 0 26 -26 41 -57z m321 -56 c40 -130 40 -127 21 -127 -8 0 -17 15 -20 36
l-7 35 -52 -3 c-48 -3 -52 -5 -61 -35 -5 -18 -15 -33 -22 -33 -19 0 -19 -4 22
126 33 102 39 114 60 114 21 0 27 -12 59 -113z m189 13 c32 -105 27 -108 66
28 18 63 24 72 44 72 29 0 36 -28 36 -152 0 -67 -3 -89 -12 -86 -9 3 -15 38
-18 109 -6 116 -11 114 -45 -13 -16 -59 -21 -68 -41 -68 -21 0 -27 10 -51 93
l-28 92 -7 -50 c-3 -27 -7 -76 -7 -107 -1 -47 -4 -58 -17 -58 -14 0 -16 8 -10
53 3 28 6 83 6 120 l0 68 27 -3 c25 -3 30 -11 57 -98z m470 84 c21 -20 21 -90
1 -102 -14 -7 -14 -12 -1 -38 23 -48 28 -84 13 -84 -7 0 -20 21 -28 48 -14 44
-17 47 -52 50 l-37 3 0 -50 c0 -39 -4 -51 -15 -51 -12 0 -15 20 -15 120 l0
120 59 0 c41 0 65 -5 75 -16z m246 6 c0 -5 -22 -10 -49 -10 -56 0 -74 -15 -69
-57 3 -26 7 -28 51 -31 63 -4 61 -22 -3 -22 -50 0 -50 0 -50 -33 0 -45 15 -57
72 -57 26 0 48 -4 48 -10 0 -11 -98 -14 -124 -4 -13 5 -16 25 -16 114 0 77 4
110 13 113 23 10 127 7 127 -3z m197 -7 c3 -8 -13 -13 -49 -15 -51 -3 -53 -4
-53 -33 0 -26 5 -31 44 -42 58 -17 71 -29 71 -69 0 -49 -23 -66 -83 -62 -70 4
-74 26 -5 30 52 3 53 4 53 33 0 27 -5 31 -48 45 -53 17 -67 32 -67 72 0 43 25
59 83 56 28 -2 52 -8 54 -15z m242 -7 c20 -21 27 -142 9 -175 -16 -30 -58 -45
-104 -36 -28 5 -39 13 -50 40 -27 66 -11 168 30 186 29 12 96 4 115 -15z m131
-69 c0 -104 7 -117 57 -117 29 0 33 4 42 38 6 20 11 67 11 105 0 38 4 67 10
67 6 0 10 -40 10 -100 0 -89 -2 -102 -21 -121 -18 -18 -30 -20 -67 -16 -64 7
-72 22 -72 139 0 80 3 98 15 98 12 0 15 -17 15 -93z m348 77 c26 -18 30 -74 7
-98 -11 -11 -13 -21 -7 -33 6 -10 14 -35 20 -55 16 -60 -13 -49 -33 12 -16 47
-19 50 -51 50 l-34 0 0 -50 c0 -38 -4 -50 -15 -50 -12 0 -15 20 -15 120 l0
120 53 0 c31 0 61 -6 75 -16z m236 10 c28 -11 6 -24 -38 -24 -23 0 -47 -5 -54
-12 -16 -16 -16 -140 0 -156 7 -7 34 -12 61 -12 64 0 59 -24 -6 -28 -39 -3
-51 1 -72 22 -22 22 -25 34 -25 96 0 62 3 74 25 95 24 25 73 33 109 19z m226
-4 c0 -5 -18 -10 -39 -10 -61 0 -71 -7 -71 -51 l0 -39 50 0 c28 0 50 -4 50
-10 0 -5 -23 -10 -51 -10 l-50 0 3 -42 3 -43 53 -3 c72 -4 66 -22 -8 -22 -74
0 -80 9 -80 120 0 111 6 120 80 120 33 0 60 -4 60 -10z m208 -7 c3 -10 -12
-13 -53 -13 l-56 0 3 -32 c3 -29 8 -34 48 -45 50 -14 70 -35 70 -70 0 -37 -34
-63 -82 -63 -48 0 -83 15 -58 24 8 3 35 7 60 8 42 3 45 5 45 32 0 26 -6 31
-45 45 -25 9 -51 20 -58 24 -19 13 -15 84 6 96 23 15 114 9 120 -6z"/>
<path d="M2495 4685 c-5 -2 -22 -6 -37 -9 -34 -8 -90 -56 -119 -102 -17 -29
-19 -40 -11 -57 12 -23 15 -41 13 -70 -2 -26 -46 -67 -74 -67 -21 0 -27 -9
-45 -72 -41 -140 -43 -131 30 -157 34 -13 103 -41 152 -63 l89 -39 109 46 c61
26 130 54 154 62 50 17 49 3 8 153 -31 108 -113 275 -156 317 -33 32 -94 63
-113 58z"/>
<path d="M1640 4200 c-75 -25 -100 -58 -100 -131 0 -44 7 -71 35 -125 40 -80
142 -212 216 -278 l51 -46 37 30 c20 17 77 61 128 98 l92 67 6 55 c3 30 13 99
20 153 8 54 15 104 15 112 0 17 -101 50 -218 70 -115 20 -215 19 -282 -5z"/>
<path d="M3025 4200 c-144 -32 -187 -49 -180 -70 9 -27 35 -230 35 -272 0 -27
6 -40 19 -48 11 -5 72 -51 136 -101 l117 -91 50 48 c80 78 176 203 213 278 59
116 45 205 -38 248 -60 32 -227 35 -352 8z"/>
<path d="M2171 4087 c-16 -78 -34 -228 -28 -233 2 -3 49 22 103 54 55 33 123
73 153 90 l55 30 -40 17 c-21 9 -83 34 -136 55 l-97 38 -10 -51z"/>
<path d="M2685 4092 c-49 -21 -103 -45 -120 -54 l-29 -16 64 -32 c36 -18 104
-57 153 -86 l87 -53 0 32 c0 18 -7 77 -15 132 -8 55 -15 103 -15 108 0 15 -37
6 -125 -31z"/>
<path d="M2323 3914 c-83 -47 -161 -95 -172 -105 -20 -18 -21 -31 -21 -178 0
-87 3 -178 6 -203 l6 -45 137 -80 c75 -45 154 -90 177 -101 l41 -21 144 80
c216 121 205 110 212 221 3 51 3 144 0 207 l-6 113 -66 43 c-97 63 -269 155
-289 155 -9 0 -85 -39 -169 -86z m262 -113 c51 -23 111 -89 124 -138 23 -82 7
-155 -47 -215 -94 -105 -240 -104 -336 2 -75 83 -74 207 2 292 46 52 103 78
167 78 28 0 68 -9 90 -19z"/>
<path d="M1994 3697 c-138 -104 -134 -97 -77 -144 88 -72 174 -135 179 -130 2
2 3 82 2 177 l-3 173 -101 -76z"/>
<path d="M2890 3595 l0 -177 28 17 c40 27 190 144 197 155 5 9 -129 121 -195
163 l-30 19 0 -177z"/>
<path d="M1761 3495 c-284 -299 -297 -506 -33 -523 51 -3 72 -1 72 7 0 7 11
23 25 36 32 32 75 32 113 0 29 -24 30 -24 88 -10 33 9 73 20 90 25 l30 10 -12
73 c-7 39 -16 111 -20 159 -4 47 -9 90 -13 95 -3 5 -31 26 -61 48 -30 21 -88
65 -127 97 -40 32 -75 58 -77 58 -2 0 -36 -34 -75 -75z"/>
<path d="M3129 3554 c-7 -8 -58 -49 -113 -91 -56 -41 -108 -80 -117 -87 -12
-10 -18 -39 -23 -102 -4 -49 -13 -120 -21 -159 -7 -38 -10 -73 -7 -76 4 -4 43
-16 87 -27 251 -65 443 -53 498 32 29 44 22 119 -18 202 -34 71 -37 74 -71 74
-24 0 -43 8 -61 26 -22 22 -25 32 -21 69 5 42 3 45 -51 99 -31 31 -59 56 -63
56 -3 0 -11 -7 -19 -16z"/>
<path d="M2140 3336 c0 -15 32 -244 36 -263 l6 -22 76 28 c43 16 104 41 137
56 l59 27 -54 30 c-30 17 -98 56 -150 87 -107 63 -110 65 -110 57z"/>
<path d="M2804 3316 c-17 -11 -83 -50 -147 -86 -64 -36 -113 -68 -109 -72 10
-10 253 -110 257 -106 8 7 36 228 33 256 l-3 30 -31 -22z"/>
<path d="M2400 3099 c-47 -21 -113 -49 -147 -61 -35 -13 -63 -28 -63 -35 0 -6
16 -65 36 -130 44 -144 100 -255 158 -312 38 -37 52 -45 95 -49 39 -3 57 0 85
17 71 44 152 188 199 352 42 146 42 136 -1 150 -20 6 -88 34 -151 60 -62 27
-116 49 -120 48 -3 -1 -44 -18 -91 -40z"/>
<path d="M2640 1640 l0 -192 148 4 c125 3 154 7 183 24 55 32 71 74 67 179 -6
153 -26 167 -245 173 l-153 4 0 -192z"/>
<path d="M1457 528 c-10 -31 -17 -59 -17 -62 0 -3 16 -6 36 -6 35 0 35 1 29
33 -4 17 -13 46 -20 62 l-12 30 -16 -57z"/>
<path d="M2090 530 c0 -40 0 -40 40 -40 29 0 42 5 50 20 18 34 -4 60 -50 60
-40 0 -40 0 -40 -40z"/>
<path d="M2766 548 c-9 -12 -16 -43 -16 -68 0 -61 21 -90 65 -90 43 0 55 20
55 90 0 70 -12 90 -55 90 -24 0 -39 -7 -49 -22z"/>
<path d="M3260 530 l0 -41 43 3 c41 3 42 4 42 38 0 34 -1 35 -42 38 l-43 3 0
-41z"/>
</g>
</svg>
